<?xml version="1.0"?><svg width="640" height="480" xmlns="http://www.w3.org/2000/svg">
 <title>white thumbs up</title>
 <metadata id="metadata8594">image/svg+xml</metadata>
 <g>
  <title>Layer 1</title>
  <g id="svg_1">
   <path stroke="#000000" id="svg_2" mask="none" d="m187.205017,276.197998c0,0 29.819,-7.614014 56.46698,-43.144043c10.785004,-15.22699 20.302002,-43.142944 27.281006,-67.886963c6.345001,-13.957977 4.441986,-20.302002 34.260986,-32.356995c19.033997,-10.786011 48.854004,-32.992004 62.177002,-68.522011c3.807007,-15.860989 -5.075989,-51.390987 27.282013,-50.756977c34.261017,0 32.357025,31.088989 34.261017,52.025997c-2.538025,37.432983 -31.723022,73.596985 -31.723022,73.596985l-25.378998,41.240051c0,0 9.444,-0.531006 39.35202,1.135925c23.714966,1.321045 48.549988,-3.006958 81.830017,7.112c75.500977,38.067993 11.420959,64.715027 11.420959,64.715027c41.239014,29.820007 4.440979,61.54303 4.440979,61.54303c26.013,46.949951 -16.46698,56.714966 -13.958008,57.100952c8.248047,1.269043 36.798035,31.08905 -12.054932,57.101013c0,0 -53.295044,23.475037 -82.480042,23.475037c-19.033997,3.172974 -73.596985,3.806946 -114.837006,-13.322998c-48.852997,-8.248047 -38.701996,2.537964 -79.306976,10.151001l-19.033997,-173.207031z" stroke-width="17" fill="#ffffff"/>
  </g>
 </g>
</svg>